<?xml version="1.0" encoding="UTF-8"?>
<svg id="Layer_1" data-name="Layer 1" xmlns="http://www.w3.org/2000/svg" viewBox="0 0 864 864">
  <defs>
    <style>
      .cls-1 {
        fill: #e8e8e8;
      }
    </style>
  </defs>
  <g>
    <polygon class="cls-1" points="278.94 296.56 278.94 350.79 251.92 377.82 197.78 377.82 143.54 323.68 116.52 323.68 89.4 296.56 89.4 215.4 197.78 215.4 278.94 296.56"/>
    <path class="cls-1" d="M773.4,215.39v81.17l-54.23,54.23v27.02l-135.4,135.4h-81.16l-27.12,27.12v27.02l27.12,27.12v27.11l-27.12,27.03h-135.4v-79.77c.25-.2.46-.43.65-.68.04-.03.08-.05.11-.08v.05l133.39-133.4h-.05l29.28-30.59v-.07l5.48-5.49,101.94-102.02v-27.03h-54.14l-34.04,34.04v20.1l-81.26,81.26h-27.11l-29.8,29.8-43.69,43.68-34.8,34.8v54.14l-81.25,81.26h-54.14l-81.26-81.26v-108.28h27.12l27.02,27.12h27.12l87.6-87.61,74.91-74.91v-27.11l81.17-81.17h359.06Z"/>
  </g>
  <path class="cls-1" d="M720.36,404.63l-189.54,189.54v54.14h107.07l52.92-54.14h29.55l54.24-54.14v-135.4h-54.24Z"/>
  <polyline class="cls-1" points="354.96 559.1 368.77 545.29 369.53 544.53 477.23 436.82 502.92 411.13 507.03 407.02 513.38 400.67 608.46 305.59"/>
</svg>