<?xml version="1.0" encoding="UTF-8"?>
<svg id="Layer_1" data-name="Layer 1" xmlns="http://www.w3.org/2000/svg" viewBox="0 0 864 864">
  <defs>
    <style>
      .cls-1 {
        fill: #111213;
      }
    </style>
  </defs>
  <g>
    <polygon class="cls-1" points="279.54 296.56 279.54 350.79 252.51 377.81 198.37 377.81 144.14 323.67 117.12 323.67 90 296.56 90 215.39 198.37 215.39 279.54 296.56"/>
    <polygon class="cls-1" points="774 215.39 774 296.56 719.77 350.79 719.77 377.81 584.37 513.21 503.21 513.21 476.09 540.33 476.09 567.35 503.21 594.47 503.21 621.58 476.09 648.61 340.69 648.61 340.69 513.21 448.97 404.93 503.21 404.93 611.49 296.56 611.49 269.53 557.35 269.53 523.31 303.57 523.31 323.67 442.05 404.93 414.94 404.93 306.65 513.21 306.65 567.35 225.4 648.61 171.26 648.61 90 567.35 90 459.07 117.12 459.07 144.14 486.19 171.26 486.19 333.77 323.67 333.77 296.56 414.94 215.39 774 215.39"/>
  </g>
  <path class="cls-1" d="M719.77,404.93l-189.54,189.54v54.14h107.07l52.93-54.14h29.55l54.23-54.14v-135.4h-54.23Z"/>
</svg>